<svg xmlns="http://www.w3.org/2000/svg" viewBox="0 0 512 512" width="512" height="512">
  <defs>
    <radialGradient id="bg" cx="50%" cy="50%" r="50%">
      <stop offset="0%" style="stop-color:#0d1f0d"/>
      <stop offset="100%" style="stop-color:#020802"/>
    </radialGradient>
    <radialGradient id="centerGlow" cx="50%" cy="50%" r="50%">
      <stop offset="0%" style="stop-color:#00ff41;stop-opacity:0.15"/>
      <stop offset="100%" style="stop-color:#00ff41;stop-opacity:0"/>
    </radialGradient>
    <filter id="glow"><feGaussianBlur stdDeviation="3" result="blur"/><feMerge><feMergeNode in="blur"/><feMergeNode in="SourceGraphic"/></feMerge></filter>
    <filter id="strongGlow"><feGaussianBlur stdDeviation="6" result="blur"/><feMerge><feMergeNode in="blur"/><feMergeNode in="SourceGraphic"/></feMerge></filter>
    <pattern id="hex" x="0" y="0" width="44" height="50" patternUnits="userSpaceOnUse">
      <polygon points="22,2 42,13 42,37 22,48 2,37 2,13" fill="none" stroke="#00ff4118" stroke-width="1"/>
    </pattern>
    <linearGradient id="streak" x1="0%" y1="0%" x2="100%" y2="0%">
      <stop offset="0%" style="stop-color:#00ff41;stop-opacity:0"/>
      <stop offset="50%" style="stop-color:#aaffaa;stop-opacity:1"/>
      <stop offset="100%" style="stop-color:#00ff41;stop-opacity:0"/>
    </linearGradient>
  </defs>
  <rect width="512" height="512" fill="url(#bg)"/>
  <rect width="512" height="512" fill="url(#hex)"/>
  <circle cx="256" cy="256" r="280" fill="url(#centerGlow)"/>
  <rect x="0" y="253" width="512" height="2" fill="url(#streak)" opacity="0.6"/>
  <g filter="url(#strongGlow)">
    <rect x="155" y="128" width="28" height="256" rx="3" fill="#003300" stroke="#00ff41" stroke-width="2"/>
    <line x1="165" y1="140" x2="165" y2="372" stroke="#00cc33" stroke-width="1"/>
    <rect x="155" y="128" width="130" height="28" rx="3" fill="#003300" stroke="#00ff41" stroke-width="2"/>
    <line x1="167" y1="138" x2="273" y2="138" stroke="#00cc33" stroke-width="1"/>
    <rect x="155" y="236" width="130" height="28" rx="3" fill="#003300" stroke="#00ff41" stroke-width="2"/>
    <line x1="167" y1="246" x2="273" y2="246" stroke="#00cc33" stroke-width="1"/>
    <path d="M285 128 Q370 128 370 196 Q370 264 285 264" fill="none" stroke="#00ff41" stroke-width="28" stroke-linecap="round"/>
    <path d="M285 138 Q352 138 352 196 Q352 254 285 254" fill="none" stroke="#003300" stroke-width="14"/>
    <path d="M285 148 Q340 148 340 196 Q340 244 285 244" fill="none" stroke="#00cc33" stroke-width="1"/>
    <polygon points="280,172 300,183 300,205 280,216 260,205 260,183" fill="#004400" stroke="#00ff41" stroke-width="1.5"/>
    <polygon points="280,182 294,190 294,204 280,212 266,204 266,190" fill="#003300" stroke="#00cc33" stroke-width="1"/>
    <line x1="285" y1="264" x2="358" y2="384" stroke="#00ff41" stroke-width="28" stroke-linecap="round"/>
    <line x1="285" y1="264" x2="358" y2="384" stroke="#003300" stroke-width="18"/>
    <line x1="285" y1="264" x2="358" y2="384" stroke="#00cc33" stroke-width="1.5"/>
    <circle cx="155" cy="142" r="5" fill="#00ff41"/>
    <circle cx="285" cy="128" r="5" fill="#00ff41"/>
    <circle cx="370" cy="196" r="5" fill="#00ff41"/>
    <circle cx="285" cy="264" r="6" fill="#00ff41"/>
    <circle cx="358" cy="384" r="5" fill="#00ff41"/>
    <circle cx="155" cy="384" r="5" fill="#00ff41"/>
    <circle cx="320" cy="320" r="4" fill="#00ff41"/>
    <line x1="155" y1="170" x2="130" y2="170" stroke="#00ff41" stroke-width="1.5"/>
    <line x1="130" y1="170" x2="130" y2="155" stroke="#00ff41" stroke-width="1.5"/>
    <circle cx="130" cy="155" r="3" fill="#00ff41"/>
    <line x1="155" y1="310" x2="128" y2="310" stroke="#00ff41" stroke-width="1.5"/>
    <circle cx="128" cy="310" r="3" fill="#00ff41"/>
    <line x1="370" y1="196" x2="395" y2="196" stroke="#00ff41" stroke-width="1.5"/>
    <line x1="395" y1="196" x2="395" y2="178" stroke="#00ff41" stroke-width="1.5"/>
    <circle cx="395" cy="178" r="3" fill="#00ff41"/>
    <line x1="320" y1="320" x2="345" y2="320" stroke="#00ff41" stroke-width="1.5"/>
    <circle cx="345" cy="320" r="3" fill="#00ff41"/>
  </g>
  <polygon points="478,478 490,466 502,478 490,490" fill="#00ff41" opacity="0.9" filter="url(#glow)"/>
</svg>
